<svg width="600" height="200">
  <style id="server_node_icon_style">.node-icon{opacity:0.92;pointer-events:none}.node-icon.hidden{opacity:0}.node-icon.generic-icon{fill:#1e40af}</style><defs id="icon-sprite"><symbol id="icon-kubernetes" viewBox="0 0 128 128"><g fill="#486bb3"><path d="M56.484 55.098c.37.27.82.43 1.31.43 1.2 0 2.18-.95 2.23-2.13l.05-.03.75-13.26c-.9.11-1.8.26-2.7.46-4.93 1.12-9.2 3.55-12.54 6.83l10.87 7.71.03-.01zM55.034 74.528a2.218 2.218 0 00-2.58-1.69l-.02-.03-13.05 2.21a26.15 26.15 0 0010.51 13.15l5.06-12.22-.04-.05c.17-.42.23-.89.12-1.37zM50.694 65.118c.44-.12.85-.38 1.16-.76.75-.94.62-2.29-.28-3.07l.01-.05-9.93-8.88a26.07 26.07 0 00-3.7 16.48l12.73-3.67.01-.05zM60.334 69.018l3.66 1.76 3.66-1.75.9-3.95-2.53-3.16h-4.06l-2.54 3.16zM67.934 53.348c.02.46.18.91.49 1.29.75.94 2.1 1.11 3.06.41l.04.02 10.8-7.66c-4.08-3.99-9.4-6.6-15.15-7.3l.75 13.24h.01zM75.514 72.778c-.17-.03-.34-.05-.51-.04-.29.01-.58.09-.85.22a2.23 2.23 0 00-1.08 2.89l-.02.02 5.11 12.34c4.93-3.14 8.61-7.83 10.54-13.24l-13.16-2.23-.03.04zM65.954 79.318a2.246 2.246 0 00-2.04-1.17c-.77.03-1.5.46-1.89 1.18h-.01l-6.42 11.6a26.16 26.16 0 0014.27.73c.88-.2 1.74-.44 2.57-.72l-6.43-11.63h-.05z" /><path d="M124.544 76.788l-10.44-45.33a8.012 8.012 0 00-4.37-5.43l-42.24-20.18a8.157 8.157 0 00-3.92-.78 8.15 8.15 0 00-3.1.78l-42.24 20.18a8.055 8.055 0 00-4.37 5.43l-10.41 45.34a7.92 7.92 0 001.1 6.14c.14.22.3.43.46.64l29.24 36.35a8.087 8.087 0 006.32 3.01l46.89-.01c2.46 0 4.78-1.11 6.32-3.01l29.23-36.36a7.981 7.981 0 001.53-6.77zm-16.07-.55c-.31 1.35-1.76 2.17-3.26 1.85-.01 0-.03 0-.04-.01-.02 0-.03-.01-.05-.02-.21-.05-.47-.09-.65-.14-.86-.23-1.49-.58-2.27-.88-1.67-.6-3.06-1.1-4.41-1.3-.69-.05-1.04.27-1.42.52-.18-.04-.75-.14-1.08-.19-2.42 7.61-7.58 14.21-14.57 18.33.12.29.33.91.42 1.02-.16.43-.4.83-.19 1.49.49 1.27 1.28 2.52 2.24 4.01.46.69.94 1.22 1.36 2.02.1.19.23.48.33.68.65 1.39.17 2.99-1.08 3.59-1.26.61-2.82-.03-3.5-1.43-.1-.2-.23-.46-.31-.65-.36-.82-.48-1.52-.73-2.32-.57-1.68-1.05-3.07-1.73-4.25-.39-.57-.86-.64-1.29-.78-.08-.14-.38-.69-.54-.97-1.4.53-2.84.97-4.34 1.31-6.56 1.49-13.13.89-18.99-1.37l-.57 1.04c-.43.11-.84.23-1.09.53-.92 1.1-1.29 2.86-1.96 4.54-.25.79-.37 1.5-.73 2.32-.08.19-.22.45-.31.64v.01l-.01.01c-.67 1.39-2.23 2.03-3.49 1.43-1.25-.6-1.72-2.2-1.08-3.59.1-.2.22-.49.32-.68.42-.79.89-1.33 1.36-2.02.96-1.5 1.8-2.84 2.29-4.11.12-.42-.06-1-.22-1.43l.46-1.1c-6.73-3.99-12.04-10.34-14.58-18.21l-1.1.19c-.3-.17-.89-.56-1.45-.51-1.35.2-2.74.7-4.41 1.3-.78.3-1.4.64-2.27.87-.18.05-.44.1-.65.15-.02 0-.03.01-.05.02-.01 0-.03 0-.04.01-1.5.32-2.95-.5-3.26-1.85-.31-1.35.65-2.72 2.14-3.08.01 0 .03-.01.04-.01.01 0 .01 0 .02-.01.21-.05.48-.12.68-.16.88-.17 1.6-.13 2.43-.19 1.77-.19 3.23-.34 4.53-.75.41-.17.81-.74 1.09-1.1l1.06-.31c-1.19-8.22.82-16.28 5.16-22.81l-.81-.72c-.05-.32-.12-1.04-.51-1.46-.99-.93-2.25-1.71-3.76-2.64-.72-.42-1.38-.69-2.1-1.23-.15-.11-.36-.29-.52-.42-.01-.01-.03-.02-.04-.03-1.21-.97-1.49-2.64-.62-3.73.49-.61 1.24-.92 2.01-.89.6.02 1.23.24 1.76.66.17.14.41.32.56.45.68.58 1.09 1.16 1.66 1.77 1.25 1.27 2.28 2.32 3.41 3.08.59.35 1.05.21 1.5.15.15.11.63.46.91.65 4.3-4.57 9.96-7.95 16.52-9.44 1.53-.35 3.05-.58 4.57-.7l.06-1.07c.34-.33.71-.79.82-1.31.11-1.36-.07-2.82-.28-4.59-.12-.82-.31-1.51-.35-2.4-.01-.18 0-.44.01-.65 0-.02-.01-.05-.01-.07 0-1.55 1.13-2.81 2.53-2.81s2.53 1.26 2.53 2.81c0 .22.01.52.01.72-.03.89-.23 1.58-.35 2.4-.21 1.76-.4 3.23-.29 4.59.1.68.5.95.83 1.26.01.18.04.79.06 1.13 8.04.71 15.5 4.39 20.99 10.14l.96-.69c.33.02 1.04.12 1.53-.17 1.13-.76 2.16-1.82 3.41-3.08.57-.61.99-1.18 1.67-1.77.15-.13.39-.31.56-.45 1.21-.97 2.9-.86 3.77.23s.59 2.76-.62 3.73c-.17.14-.39.33-.56.45-.72.53-1.38.8-2.1 1.23-1.51.93-2.77 1.71-3.76 2.64-.47.5-.43.98-.48 1.43-.14.13-.63.57-.9.8a32.75 32.75 0 014.74 10.95c.92 3.99 1.06 7.97.53 11.8l1.02.3c.18.26.56.89 1.09 1.1 1.3.41 2.76.56 4.53.75.83.07 1.55.03 2.43.19.21.04.52.12.73.17 1.5.37 2.45 1.74 2.14 3.09z" /><path d="M86.274 52.358l-9.88 8.84.01.03c-.34.3-.6.7-.71 1.18-.27 1.17.44 2.33 1.58 2.65l.01.05 12.79 3.68c.27-2.76.11-5.62-.55-8.48-.66-2.89-1.77-5.56-3.25-7.95z" /></g></symbol><symbol id="icon-airflow" viewBox="0 0 128 128"><path d="m2.5441 127 60.809-62.332a1.124 1.124 0 0 0 0.1359-1.4368c-3.6977-5.1625-10.521-6.0578-13.05-9.5268-7.4903-10.275-9.3909-16.092-12.61-15.731a0.98374 0.98374 0 0 0-0.58464 0.3085l-21.966 22.518c-12.638 12.944-14.454 41.475-14.782 65.367a1.1908 1.1908 0 0 0 2.0473 0.83273z" fill="#017cee" />
<path d="m126.99 125.46-62.332-60.813a1.124 1.124 0 0 0-1.4389-0.1359c-5.1625 3.6998-6.0578 10.521-9.5268 13.05-10.275 7.4903-16.092 9.3909-15.731 12.61a0.98374 0.98374 0 0 0 0.3085 0.58248l22.518 21.966c12.944 12.638 41.475 14.454 65.367 14.782a1.1908 1.1908 0 0 0 0.83489-2.0408z" fill="#00ad46" />
<path d="m60.792 112.72c-7.076-6.9035-10.355-20.559 3.2058-48.719-22.046 9.8525-29.771 22.803-25.972 26.511z" fill="#04d659" />
<path d="m125.45 1.0113-60.807 62.332a1.1218 1.1218 0 0 0-0.1359 1.4368c3.6998 5.1625 10.519 6.0578 13.05 9.5268 7.4903 10.275 9.393 16.092 12.61 15.731a0.97943 0.97943 0 0 0 0.58464-0.3085l21.966-22.518c12.638-12.944 14.454-41.475 14.782-65.367a1.193 1.193 0 0 0-2.0495-0.83273z" fill="#00c7d4" />
<path d="m112.73 67.211c-6.9035 7.076-20.559 10.355-48.721-3.2058 9.8525 22.046 22.803 29.771 26.511 25.972z" fill="#11e1ee" />
<path d="m1.0017 2.5495 62.332 60.807a1.124 1.124 0 0 0 1.4368 0.1359c5.1625-3.6998 6.0578-10.521 9.5268-13.05 10.275-7.4903 16.092-9.3909 15.731-12.61a0.99022 0.99022 0 0 0-0.3085-0.58463l-22.518-21.966c-12.944-12.638-41.475-14.454-65.367-14.782a1.1908 1.1908 0 0 0-0.83273 2.0495z" fill="#e43921" />
<path d="m67.212 15.284c7.076 6.9035 10.355 20.559-3.2058 48.721 22.046-9.8525 29.771-22.805 25.972-26.511z" fill="#ff7557" />
<path d="m15.279 60.8c6.9035-7.076 20.559-10.355 48.721 3.2058-9.8525-22.046-22.803-29.771-26.511-25.972z" fill="#0cb6ff" />
<circle cx="64.009" cy="63.995" r="2.7182" fill="#4a4848" />
</symbol></defs><g id="n1" data-kind="node" data-icon-injected="1" data-icon-symbol="icon-kubernetes">
    <rect x="10" y="10" width="260" height="78" fill="#e8ecf8" stroke="#9090d0" />
    <use href="#icon-kubernetes" class="node-icon injected-icon" width="20.0" height="20.0" ns1:href="#icon-kubernetes" x="14.0" y="39.0" /><text x="140" y="55" text-anchor="middle">Kubernetes Cluster (PROD)</text>
  </g>
  <g id="n2" data-kind="node" data-icon-injected="1" data-icon-symbol="icon-airflow">
    <rect x="310" y="10" width="270" height="78" fill="#e8ecf8" stroke="#9090d0" />
    <use href="#icon-airflow" class="node-icon injected-icon" width="20.0" height="20.0" ns1:href="#icon-airflow" x="314.0" y="39.0" /><text x="445" y="55" text-anchor="middle">Airflow/Superset/OpenMetadata</text>
  </g>
</svg>